# xmcd
#
# Track frame offsets:
#	150
#	16409
#	34369
#	48348
#	63073
#	77322
#	91721
#	106529
#	122959
#	136697
#	151176
#	163358
#	182396
#	195939
#	212542
#	225564
#	239253
#	252175
#	268753
#
# Disc length: 3779 seconds
#
# Revision: 1
# Processed by: cddbd v1.5.2PL0 Copyright (c) Steve Scherf et al.
# Submitted via: audiograbber 1.82.02
#
DISCID=e10ec113
DTITLE=Various Artist - Country Radio - March 2016
DYEAR=2016
DGENRE=Country
TTITLE0=Chris Young and Cassadee Pope - Think Of You
TTITLE1=Tobacco Road Band (Ft. Eric Durrance) - Jesus and Guns
TTITLE2=Cash Creek - Worth A Woman
TTITLE3=Backroad Anthem - Torn
TTITLE4=Cold Creek County - 'Till The Wheels Come Off
TTITLE5=Jordan Rager - Feels Like One Of Them
TTITLE6=Cains - Knock Knock
TTITLE7=Trace Adkins - Jesus and Jones
TTITLE8=Billy Currington - It Don't Hurt Like It Used To
TTITLE9=Dierks Bentley - Somewhere On A Beach
TTITLE10=Brenda Burch - Sparks Will Fly
TTITLE11=Tim McGraw - Humble and Kind
TTITLE12=Brooke Eden - Daddy's Money
TTITLE13=David McArthur - Local Honey
TTITLE14=Olivia Lane - Make My Own Sunshine
TTITLE15=Steven Tyler - Red, White and You (PO Radio Edit)
TTITLE16=Scott Brothers - Hold On
TTITLE17=Chuck Wicks - She's Gone
TTITLE18=Tim Hadler - Running Around
EXTD=
EXTT0=
EXTT1=
EXTT2=
EXTT3=
EXTT4=
EXTT5=
EXTT6=
EXTT7=
EXTT8=
EXTT9=
EXTT10=
EXTT11=
EXTT12=
EXTT13=
EXTT14=
EXTT15=
EXTT16=
EXTT17=
EXTT18=
PLAYORDER=
